<mxfile host="app.diagrams.net" modified="2020-08-05T02:01:18.503Z" agent="5.0 (Windows NT 10.0; Win64; x64) AppleWebKit/537.36 (KHTML, like Gecko) Chrome/84.0.4147.105 Safari/537.36" etag="Q30DVRkM23K2IV3yL6ft" version="13.5.9" type="github">
  <diagram id="u5ApIbTFqXXYxqOQHgdF" name="第 2 页">
    <mxGraphModel dx="3702" dy="1851" grid="1" gridSize="5" guides="1" tooltips="1" connect="1" arrows="1" fold="1" page="1" pageScale="1" pageWidth="827" pageHeight="1169" math="0" shadow="0">
      <root>
        <mxCell id="Qp8LGx2am25BI7LuQ1px-0" />
        <mxCell id="Qp8LGx2am25BI7LuQ1px-1" parent="Qp8LGx2am25BI7LuQ1px-0" />
        <mxCell id="zfv1P-phXISMb_NBBrQO-0" value="" style="fillColor=#DEE8FF;strokeColor=none" parent="Qp8LGx2am25BI7LuQ1px-1" vertex="1">
          <mxGeometry x="-1676.75" y="-1169" width="2048.5" height="1464" as="geometry" />
        </mxCell>
        <mxCell id="DMQ4lBBP8DXpzSE-sa22-23" value="" style="rounded=1;whiteSpace=wrap;html=1;fontSize=22;fillColor=#ffe6cc;strokeColor=#d79b00;" parent="Qp8LGx2am25BI7LuQ1px-1" vertex="1">
          <mxGeometry x="-1630" y="-545" width="1955" height="805" as="geometry" />
        </mxCell>
        <mxCell id="gisPpIyH0exq2wIck2Z8-35" value="" style="fillColor=#CC4125;strokeColor=#660000" parent="Qp8LGx2am25BI7LuQ1px-1" vertex="1">
          <mxGeometry x="-1110" y="-245" width="10" height="165" as="geometry" />
        </mxCell>
        <mxCell id="gisPpIyH0exq2wIck2Z8-12" value="" style="endArrow=classic;html=1;fontSize=22;entryX=0;entryY=0;entryDx=0;entryDy=0;exitX=1.034;exitY=0.136;exitDx=0;exitDy=0;exitPerimeter=0;" parent="Qp8LGx2am25BI7LuQ1px-1" edge="1">
          <mxGeometry width="50" height="50" relative="1" as="geometry">
            <mxPoint x="-1395" y="-5.569999999999773" as="sourcePoint" />
            <mxPoint x="-1115.3400000000001" y="-5.530000000000037" as="targetPoint" />
          </mxGeometry>
        </mxCell>
        <mxCell id="gisPpIyH0exq2wIck2Z8-13" value="&lt;font style=&quot;font-size: 18px&quot;&gt;认购参数录入（基金发行人）&lt;/font&gt;" style="edgeLabel;html=1;align=center;verticalAlign=middle;resizable=0;points=[];" parent="gisPpIyH0exq2wIck2Z8-12" vertex="1" connectable="0">
          <mxGeometry x="0.0816" y="-1" relative="1" as="geometry">
            <mxPoint x="-2.3600000000000065" y="-30.02" as="offset" />
          </mxGeometry>
        </mxCell>
        <mxCell id="G7j2qKSmUK93hmbApJu_-22" value="" style="endArrow=classic;html=1;fontSize=22;entryX=0;entryY=0;entryDx=0;entryDy=0;" parent="Qp8LGx2am25BI7LuQ1px-1" edge="1">
          <mxGeometry width="50" height="50" relative="1" as="geometry">
            <mxPoint x="-1515" y="-220" as="sourcePoint" />
            <mxPoint x="-1405" y="-219.55000000000018" as="targetPoint" />
          </mxGeometry>
        </mxCell>
        <mxCell id="UzzSqA8eezPBpphtxFd--88" value="" style="edgeStyle=none;verticalLabelPosition=top;verticalAlign=bottom;endArrow=none;startArrow=classic;dashed=1;exitX=1.011;exitY=0.866;exitDx=0;exitDy=0;exitPerimeter=0;" parent="Qp8LGx2am25BI7LuQ1px-1" edge="1">
          <mxGeometry x="-1123.58" y="-200.68112654320987" width="100" height="100" as="geometry">
            <mxPoint x="-1397.5" y="-100" as="sourcePoint" />
            <mxPoint x="-1112.5" y="-99.5" as="targetPoint" />
            <Array as="points" />
          </mxGeometry>
        </mxCell>
        <mxCell id="DMQ4lBBP8DXpzSE-sa22-19" value="" style="rounded=1;whiteSpace=wrap;html=1;fontSize=22;fillColor=#f5f5f5;strokeColor=#666666;fontColor=#333333;" parent="Qp8LGx2am25BI7LuQ1px-1" vertex="1">
          <mxGeometry x="-1625" y="-960" width="1945" height="220" as="geometry" />
        </mxCell>
        <mxCell id="DMQ4lBBP8DXpzSE-sa22-17" value="" style="rounded=1;whiteSpace=wrap;html=1;fontSize=22;strokeColor=#82b366;fillColor=#d5e8d4;" parent="Qp8LGx2am25BI7LuQ1px-1" vertex="1">
          <mxGeometry x="-1625" y="-725" width="1955" height="160" as="geometry" />
        </mxCell>
        <mxCell id="zfv1P-phXISMb_NBBrQO-73" value="REITs交易时序图" style="rounded=1;fontStyle=1;fillColor=#FFD966;strokeColor=none;fontSize=22;" parent="Qp8LGx2am25BI7LuQ1px-1" vertex="1">
          <mxGeometry x="-827" y="-1140" width="307" height="60" as="geometry" />
        </mxCell>
        <mxCell id="zfv1P-phXISMb_NBBrQO-75" value="&lt;font style=&quot;font-size: 24px&quot;&gt;&lt;b&gt;web&lt;/b&gt;&lt;/font&gt;" style="rounded=1;whiteSpace=wrap;html=1;fillColor=#ffcd28;fontSize=22;gradientColor=#ffa500;strokeColor=#d79b00;" parent="Qp8LGx2am25BI7LuQ1px-1" vertex="1">
          <mxGeometry x="-1470" y="-1050" width="170" height="60" as="geometry" />
        </mxCell>
        <mxCell id="zfv1P-phXISMb_NBBrQO-76" value="&lt;font style=&quot;font-size: 24px&quot;&gt;&lt;b&gt;交易网关&lt;/b&gt;&lt;/font&gt;" style="rounded=1;whiteSpace=wrap;html=1;fillColor=#dae8fc;fontSize=22;gradientColor=#7ea6e0;strokeColor=#6c8ebf;" parent="Qp8LGx2am25BI7LuQ1px-1" vertex="1">
          <mxGeometry x="-1190" y="-1050" width="170" height="60" as="geometry" />
        </mxCell>
        <mxCell id="zfv1P-phXISMb_NBBrQO-77" value="&lt;b&gt;&lt;font style=&quot;font-size: 24px&quot;&gt;REITs服务&lt;/font&gt;&lt;/b&gt;" style="rounded=1;whiteSpace=wrap;html=1;fillColor=#d5e8d4;fontSize=22;gradientColor=#97d077;strokeColor=#82b366;" parent="Qp8LGx2am25BI7LuQ1px-1" vertex="1">
          <mxGeometry x="-940" y="-1050" width="170" height="60" as="geometry" />
        </mxCell>
        <mxCell id="zfv1P-phXISMb_NBBrQO-78" value="&lt;b&gt;&lt;font style=&quot;font-size: 24px&quot;&gt;UUMS&lt;/font&gt;&lt;/b&gt;" style="rounded=1;whiteSpace=wrap;html=1;fillColor=#fff2cc;fontSize=22;gradientColor=#ffd966;strokeColor=#d6b656;" parent="Qp8LGx2am25BI7LuQ1px-1" vertex="1">
          <mxGeometry x="-650" y="-1050" width="170" height="60" as="geometry" />
        </mxCell>
        <mxCell id="DMQ4lBBP8DXpzSE-sa22-0" value="&lt;font style=&quot;font-size: 24px&quot;&gt;&lt;b&gt;存储网关&lt;/b&gt;&lt;/font&gt;" style="rounded=1;whiteSpace=wrap;html=1;fillColor=#f5f5f5;fontSize=22;gradientColor=#b3b3b3;strokeColor=#666666;" parent="Qp8LGx2am25BI7LuQ1px-1" vertex="1">
          <mxGeometry x="-390" y="-1050" width="170" height="60" as="geometry" />
        </mxCell>
        <mxCell id="DMQ4lBBP8DXpzSE-sa22-1" value="&lt;b&gt;&lt;font style=&quot;font-size: 24px&quot;&gt;企业网关&lt;/font&gt;&lt;/b&gt;" style="rounded=1;whiteSpace=wrap;html=1;fillColor=#dae8fc;fontSize=22;gradientColor=#7ea6e0;strokeColor=#6c8ebf;" parent="Qp8LGx2am25BI7LuQ1px-1" vertex="1">
          <mxGeometry x="-130" y="-1050" width="170" height="60" as="geometry" />
        </mxCell>
        <mxCell id="DMQ4lBBP8DXpzSE-sa22-2" value="&lt;b&gt;&lt;font style=&quot;font-size: 24px&quot;&gt;业管平台&lt;/font&gt;&lt;/b&gt;" style="rounded=1;whiteSpace=wrap;html=1;fillColor=#e6d0de;fontSize=22;gradientColor=#d5739d;strokeColor=#996185;" parent="Qp8LGx2am25BI7LuQ1px-1" vertex="1">
          <mxGeometry x="110" y="-1050" width="170" height="60" as="geometry" />
        </mxCell>
        <mxCell id="DMQ4lBBP8DXpzSE-sa22-8" value="" style="endArrow=none;dashed=1;html=1;fontSize=22;entryX=0.413;entryY=1.009;entryDx=0;entryDy=0;entryPerimeter=0;" parent="Qp8LGx2am25BI7LuQ1px-1" source="UzzSqA8eezPBpphtxFd--22" target="zfv1P-phXISMb_NBBrQO-75" edge="1">
          <mxGeometry width="50" height="50" relative="1" as="geometry">
            <mxPoint x="-1400" y="-784.77783203125" as="sourcePoint" />
            <mxPoint x="-1395" y="-990" as="targetPoint" />
          </mxGeometry>
        </mxCell>
        <mxCell id="DMQ4lBBP8DXpzSE-sa22-9" value="" style="endArrow=none;dashed=1;html=1;fontSize=22;" parent="Qp8LGx2am25BI7LuQ1px-1" edge="1">
          <mxGeometry width="50" height="50" relative="1" as="geometry">
            <mxPoint x="-310" y="-870" as="sourcePoint" />
            <mxPoint x="-310" y="-989" as="targetPoint" />
          </mxGeometry>
        </mxCell>
        <mxCell id="DMQ4lBBP8DXpzSE-sa22-10" value="" style="endArrow=none;dashed=1;html=1;fontSize=22;" parent="Qp8LGx2am25BI7LuQ1px-1" source="m6hWaUQ9fFUowQkMyECI-12" edge="1">
          <mxGeometry width="50" height="50" relative="1" as="geometry">
            <mxPoint x="-566" y="240" as="sourcePoint" />
            <mxPoint x="-566.25" y="-990" as="targetPoint" />
          </mxGeometry>
        </mxCell>
        <mxCell id="DMQ4lBBP8DXpzSE-sa22-11" value="" style="endArrow=none;dashed=1;html=1;fontSize=22;entryX=0.5;entryY=1;entryDx=0;entryDy=0;" parent="Qp8LGx2am25BI7LuQ1px-1" source="m6hWaUQ9fFUowQkMyECI-39" target="zfv1P-phXISMb_NBBrQO-77" edge="1">
          <mxGeometry width="50" height="50" relative="1" as="geometry">
            <mxPoint x="-850" y="240" as="sourcePoint" />
            <mxPoint x="-850" y="-990" as="targetPoint" />
          </mxGeometry>
        </mxCell>
        <mxCell id="DMQ4lBBP8DXpzSE-sa22-12" value="" style="endArrow=none;dashed=1;html=1;fontSize=22;" parent="Qp8LGx2am25BI7LuQ1px-1" source="m6hWaUQ9fFUowQkMyECI-84" edge="1">
          <mxGeometry width="50" height="50" relative="1" as="geometry">
            <mxPoint x="-1106" y="-590" as="sourcePoint" />
            <mxPoint x="-1106.25" y="-990" as="targetPoint" />
          </mxGeometry>
        </mxCell>
        <mxCell id="DMQ4lBBP8DXpzSE-sa22-13" value="" style="endArrow=none;dashed=1;html=1;fontSize=22;entryX=0.5;entryY=1;entryDx=0;entryDy=0;" parent="Qp8LGx2am25BI7LuQ1px-1" target="DMQ4lBBP8DXpzSE-sa22-1" edge="1">
          <mxGeometry width="50" height="50" relative="1" as="geometry">
            <mxPoint x="-45" y="280" as="sourcePoint" />
            <mxPoint x="-45.83000000000001" y="-990" as="targetPoint" />
          </mxGeometry>
        </mxCell>
        <mxCell id="DMQ4lBBP8DXpzSE-sa22-14" value="" style="endArrow=none;dashed=1;html=1;fontSize=22;" parent="Qp8LGx2am25BI7LuQ1px-1" source="m6hWaUQ9fFUowQkMyECI-70" edge="1">
          <mxGeometry width="50" height="50" relative="1" as="geometry">
            <mxPoint x="194" y="-520" as="sourcePoint" />
            <mxPoint x="194.17000000000002" y="-990" as="targetPoint" />
          </mxGeometry>
        </mxCell>
        <mxCell id="DMQ4lBBP8DXpzSE-sa22-18" value="&lt;b&gt;&lt;font color=&quot;#ff8000&quot;&gt;登录认证&lt;/font&gt;&lt;/b&gt;" style="text;html=1;resizable=0;autosize=1;align=center;verticalAlign=middle;points=[];fillColor=none;strokeColor=none;rounded=0;fontSize=22;" parent="Qp8LGx2am25BI7LuQ1px-1" vertex="1">
          <mxGeometry x="-1620" y="-655" width="100" height="30" as="geometry" />
        </mxCell>
        <mxCell id="DMQ4lBBP8DXpzSE-sa22-24" value="&lt;b&gt;&lt;font color=&quot;#ff8000&quot;&gt;REITs交易&lt;/font&gt;&lt;/b&gt;" style="text;html=1;resizable=0;autosize=1;align=center;verticalAlign=middle;points=[];fillColor=none;strokeColor=none;rounded=0;fontSize=22;" parent="Qp8LGx2am25BI7LuQ1px-1" vertex="1">
          <mxGeometry x="-1620" y="-270" width="120" height="30" as="geometry" />
        </mxCell>
        <mxCell id="DMQ4lBBP8DXpzSE-sa22-25" value="" style="shape=umlActor;verticalLabelPosition=bottom;verticalAlign=top;html=1;outlineConnect=0;fillColor=#E0ECFF;fontSize=22;" parent="Qp8LGx2am25BI7LuQ1px-1" vertex="1">
          <mxGeometry x="-1350" y="-1035" width="20" height="30" as="geometry" />
        </mxCell>
        <mxCell id="m6hWaUQ9fFUowQkMyECI-4" value="账户信息，验证码(REST/GRPC)" style="edgeStyle=none;verticalLabelPosition=top;verticalAlign=bottom;entryX=0.25;entryY=0;entryDx=0;entryDy=0;fontSize=22;" parent="Qp8LGx2am25BI7LuQ1px-1" target="m6hWaUQ9fFUowQkMyECI-12" edge="1">
          <mxGeometry width="100" height="100" as="geometry">
            <mxPoint x="-1097" y="-630" as="sourcePoint" />
            <mxPoint x="-860" y="-630" as="targetPoint" />
            <mxPoint x="52" y="-10" as="offset" />
          </mxGeometry>
        </mxCell>
        <mxCell id="m6hWaUQ9fFUowQkMyECI-6" value="" style="endArrow=none;dashed=1;html=1;fontSize=22;" parent="Qp8LGx2am25BI7LuQ1px-1" source="gisPpIyH0exq2wIck2Z8-30" edge="1">
          <mxGeometry width="50" height="50" relative="1" as="geometry">
            <mxPoint x="-1106" y="239.99999999999977" as="sourcePoint" />
            <mxPoint x="-1105.0232558139535" y="-599.9999999999999" as="targetPoint" />
          </mxGeometry>
        </mxCell>
        <mxCell id="m6hWaUQ9fFUowQkMyECI-12" value="" style="fillColor=#CC4125;strokeColor=#660000" parent="Qp8LGx2am25BI7LuQ1px-1" vertex="1">
          <mxGeometry x="-570" y="-630" width="10" height="30" as="geometry" />
        </mxCell>
        <mxCell id="m6hWaUQ9fFUowQkMyECI-13" value="" style="endArrow=none;dashed=1;html=1;fontSize=22;" parent="Qp8LGx2am25BI7LuQ1px-1" target="m6hWaUQ9fFUowQkMyECI-12" edge="1">
          <mxGeometry width="50" height="50" relative="1" as="geometry">
            <mxPoint x="-560" y="280" as="sourcePoint" />
            <mxPoint x="-566.25" y="-990" as="targetPoint" />
          </mxGeometry>
        </mxCell>
        <mxCell id="m6hWaUQ9fFUowQkMyECI-14" value="" style="edgeStyle=none;verticalLabelPosition=top;verticalAlign=bottom;endArrow=none;startArrow=classic;dashed=1;entryX=0;entryY=1;entryDx=0;entryDy=0;exitX=0.269;exitY=0.75;exitDx=0;exitDy=0;exitPerimeter=0;" parent="Qp8LGx2am25BI7LuQ1px-1" source="DMQ4lBBP8DXpzSE-sa22-17" target="m6hWaUQ9fFUowQkMyECI-12" edge="1">
          <mxGeometry x="-832.5" y="-683.3411265432098" width="100" height="100" as="geometry">
            <mxPoint x="-1387" y="-580" as="sourcePoint" />
            <mxPoint x="-570" y="-595.4957098765431" as="targetPoint" />
            <Array as="points" />
          </mxGeometry>
        </mxCell>
        <mxCell id="m6hWaUQ9fFUowQkMyECI-15" value="&lt;font style=&quot;font-size: 22px&quot;&gt;返回token&lt;/font&gt;" style="edgeLabel;html=1;align=center;verticalAlign=middle;resizable=0;points=[];" parent="m6hWaUQ9fFUowQkMyECI-14" vertex="1" connectable="0">
          <mxGeometry relative="1" as="geometry">
            <mxPoint x="-23" as="offset" />
          </mxGeometry>
        </mxCell>
        <mxCell id="m6hWaUQ9fFUowQkMyECI-24" value="" style="endArrow=none;dashed=1;html=1;fontSize=22;" parent="Qp8LGx2am25BI7LuQ1px-1" edge="1">
          <mxGeometry width="50" height="50" relative="1" as="geometry">
            <mxPoint x="195" y="280" as="sourcePoint" />
            <mxPoint x="195" y="-520" as="targetPoint" />
          </mxGeometry>
        </mxCell>
        <mxCell id="m6hWaUQ9fFUowQkMyECI-32" value="&lt;b&gt;&lt;font color=&quot;#ff8000&quot;&gt;盘前初始化&lt;/font&gt;&lt;/b&gt;" style="text;html=1;resizable=0;autosize=1;align=center;verticalAlign=middle;points=[];fillColor=none;strokeColor=none;rounded=0;fontSize=22;" parent="Qp8LGx2am25BI7LuQ1px-1" vertex="1">
          <mxGeometry x="-1625" y="-870" width="130" height="30" as="geometry" />
        </mxCell>
        <mxCell id="m6hWaUQ9fFUowQkMyECI-37" value="" style="endArrow=none;dashed=1;html=1;fontSize=22;" parent="Qp8LGx2am25BI7LuQ1px-1" edge="1">
          <mxGeometry width="50" height="50" relative="1" as="geometry">
            <mxPoint x="-310.12" y="-740" as="sourcePoint" />
            <mxPoint x="-310.12" y="-875" as="targetPoint" />
          </mxGeometry>
        </mxCell>
        <mxCell id="m6hWaUQ9fFUowQkMyECI-39" value="" style="fillColor=#CC4125;strokeColor=#660000" parent="Qp8LGx2am25BI7LuQ1px-1" vertex="1">
          <mxGeometry x="-860" y="-790" width="10" height="40" as="geometry" />
        </mxCell>
        <mxCell id="m6hWaUQ9fFUowQkMyECI-40" value="" style="endArrow=none;dashed=1;html=1;fontSize=22;" parent="Qp8LGx2am25BI7LuQ1px-1" source="UzzSqA8eezPBpphtxFd--48" target="m6hWaUQ9fFUowQkMyECI-39" edge="1">
          <mxGeometry width="50" height="50" relative="1" as="geometry">
            <mxPoint x="-850" y="240" as="sourcePoint" />
            <mxPoint x="-850" y="-990.0000000000001" as="targetPoint" />
            <Array as="points">
              <mxPoint x="-855" y="-470" />
            </Array>
          </mxGeometry>
        </mxCell>
        <mxCell id="m6hWaUQ9fFUowQkMyECI-49" value="&lt;span style=&quot;background-color: rgb(255 , 255 , 255)&quot;&gt;获取参与用户的信息和基金产品信息&lt;/span&gt;&lt;span style=&quot;background-color: rgb(255 , 255 , 255)&quot;&gt;(REST/FTP)&lt;/span&gt;" style="text;html=1;resizable=0;autosize=1;align=center;verticalAlign=middle;points=[];fillColor=none;strokeColor=none;rounded=0;shadow=0;glass=0;sketch=0;fontSize=22;" parent="Qp8LGx2am25BI7LuQ1px-1" vertex="1">
          <mxGeometry x="-835" y="-790" width="490" height="30" as="geometry" />
        </mxCell>
        <mxCell id="m6hWaUQ9fFUowQkMyECI-56" value="" style="endArrow=classic;html=1;fontSize=22;entryX=0.931;entryY=0.091;entryDx=0;entryDy=0;entryPerimeter=0;" parent="Qp8LGx2am25BI7LuQ1px-1" target="DMQ4lBBP8DXpzSE-sa22-19" edge="1">
          <mxGeometry width="50" height="50" relative="1" as="geometry">
            <mxPoint x="-1390" y="-940" as="sourcePoint" />
            <mxPoint x="-320" y="-908" as="targetPoint" />
          </mxGeometry>
        </mxCell>
        <mxCell id="m6hWaUQ9fFUowQkMyECI-60" value="&lt;span style=&quot;background-color: rgb(255 , 255 , 255)&quot;&gt;上报公募REITs申请材料，公告文件等(REST/FTP)&lt;/span&gt;" style="text;html=1;resizable=0;autosize=1;align=center;verticalAlign=middle;points=[];fillColor=none;strokeColor=none;rounded=0;shadow=0;glass=0;sketch=0;fontSize=22;" parent="Qp8LGx2am25BI7LuQ1px-1" vertex="1">
          <mxGeometry x="-1155" y="-940" width="500" height="30" as="geometry" />
        </mxCell>
        <mxCell id="m6hWaUQ9fFUowQkMyECI-63" value="" style="endArrow=classic;html=1;fontSize=22;entryX=-0.253;entryY=0.387;entryDx=0;entryDy=0;entryPerimeter=0;exitX=0.121;exitY=0.273;exitDx=0;exitDy=0;exitPerimeter=0;" parent="Qp8LGx2am25BI7LuQ1px-1" source="DMQ4lBBP8DXpzSE-sa22-19" target="m6hWaUQ9fFUowQkMyECI-70" edge="1">
          <mxGeometry width="50" height="50" relative="1" as="geometry">
            <mxPoint x="-845" y="-870" as="sourcePoint" />
            <mxPoint x="-60" y="-870" as="targetPoint" />
            <Array as="points">
              <mxPoint x="180" y="-900" />
            </Array>
          </mxGeometry>
        </mxCell>
        <mxCell id="m6hWaUQ9fFUowQkMyECI-70" value="" style="fillColor=#CC4125;strokeColor=#660000" parent="Qp8LGx2am25BI7LuQ1px-1" vertex="1">
          <mxGeometry x="190" y="-945" width="10" height="125" as="geometry" />
        </mxCell>
        <mxCell id="m6hWaUQ9fFUowQkMyECI-73" value="" style="endArrow=none;dashed=1;html=1;fontSize=22;" parent="Qp8LGx2am25BI7LuQ1px-1" target="m6hWaUQ9fFUowQkMyECI-70" edge="1">
          <mxGeometry width="50" height="50" relative="1" as="geometry">
            <mxPoint x="195" y="-520" as="sourcePoint" />
            <mxPoint x="194.17000000000007" y="-990" as="targetPoint" />
          </mxGeometry>
        </mxCell>
        <mxCell id="m6hWaUQ9fFUowQkMyECI-74" value="&lt;span style=&quot;background-color: rgb(255 , 255 , 255)&quot;&gt;材料审核(REST)&lt;/span&gt;" style="text;html=1;resizable=0;autosize=1;align=center;verticalAlign=middle;points=[];fillColor=none;strokeColor=none;rounded=0;shadow=0;glass=0;sketch=0;fontSize=22;" parent="Qp8LGx2am25BI7LuQ1px-1" vertex="1">
          <mxGeometry x="-610" y="-920" width="180" height="30" as="geometry" />
        </mxCell>
        <mxCell id="m6hWaUQ9fFUowQkMyECI-79" value="" style="endArrow=none;dashed=1;html=1;fontSize=22;" parent="Qp8LGx2am25BI7LuQ1px-1" source="G7j2qKSmUK93hmbApJu_-64" edge="1">
          <mxGeometry width="50" height="50" relative="1" as="geometry">
            <mxPoint x="-310" y="240" as="sourcePoint" />
            <mxPoint x="-310" y="-750" as="targetPoint" />
          </mxGeometry>
        </mxCell>
        <mxCell id="m6hWaUQ9fFUowQkMyECI-80" value="" style="endArrow=classic;html=1;fontSize=22;exitX=-0.023;exitY=0.602;exitDx=0;exitDy=0;entryX=0.75;entryY=0;entryDx=0;entryDy=0;exitPerimeter=0;" parent="Qp8LGx2am25BI7LuQ1px-1" edge="1">
          <mxGeometry width="50" height="50" relative="1" as="geometry">
            <mxPoint x="-318.86" y="-789.9" as="sourcePoint" />
            <mxPoint x="-851.13" y="-790.0000000000001" as="targetPoint" />
          </mxGeometry>
        </mxCell>
        <mxCell id="m6hWaUQ9fFUowQkMyECI-84" value="" style="fillColor=#CC4125;strokeColor=#660000" parent="Qp8LGx2am25BI7LuQ1px-1" vertex="1">
          <mxGeometry x="-1110" y="-680" width="10" height="100" as="geometry" />
        </mxCell>
        <mxCell id="m6hWaUQ9fFUowQkMyECI-86" value="" style="endArrow=classic;html=1;fontSize=22;entryX=0;entryY=0;entryDx=0;entryDy=0;exitX=1.034;exitY=0.136;exitDx=0;exitDy=0;exitPerimeter=0;" parent="Qp8LGx2am25BI7LuQ1px-1" target="m6hWaUQ9fFUowQkMyECI-84" edge="1">
          <mxGeometry width="50" height="50" relative="1" as="geometry">
            <mxPoint x="-1389.6599999999999" y="-680.04" as="sourcePoint" />
            <mxPoint x="-1040" y="-740" as="targetPoint" />
          </mxGeometry>
        </mxCell>
        <mxCell id="m6hWaUQ9fFUowQkMyECI-88" value="请求(REST/GRPC)" style="edgeLabel;html=1;align=center;verticalAlign=middle;resizable=0;points=[];fontSize=22;" parent="m6hWaUQ9fFUowQkMyECI-86" vertex="1" connectable="0">
          <mxGeometry x="-0.1371" relative="1" as="geometry">
            <mxPoint y="-14.98" as="offset" />
          </mxGeometry>
        </mxCell>
        <mxCell id="m6hWaUQ9fFUowQkMyECI-94" value="" style="fillColor=#CC4125;strokeColor=#660000" parent="Qp8LGx2am25BI7LuQ1px-1" vertex="1">
          <mxGeometry x="-1110" y="-50" width="10" height="230" as="geometry" />
        </mxCell>
        <mxCell id="m6hWaUQ9fFUowQkMyECI-95" value="" style="endArrow=none;dashed=1;html=1;fontSize=22;entryX=0.5;entryY=1;entryDx=0;entryDy=0;" parent="Qp8LGx2am25BI7LuQ1px-1" target="m6hWaUQ9fFUowQkMyECI-94" edge="1">
          <mxGeometry width="50" height="50" relative="1" as="geometry">
            <mxPoint x="-1105" y="280" as="sourcePoint" />
            <mxPoint x="-1105.088561151079" y="390" as="targetPoint" />
          </mxGeometry>
        </mxCell>
        <mxCell id="G7j2qKSmUK93hmbApJu_-0" value="" style="fillColor=#CC4125;strokeColor=#660000" parent="Qp8LGx2am25BI7LuQ1px-1" vertex="1">
          <mxGeometry x="-315" y="-819.5" width="10" height="30" as="geometry" />
        </mxCell>
        <mxCell id="G7j2qKSmUK93hmbApJu_-1" value="" style="endArrow=classic;html=1;fontSize=22;entryX=0.931;entryY=0.545;entryDx=0;entryDy=0;entryPerimeter=0;exitX=0.121;exitY=0.545;exitDx=0;exitDy=0;exitPerimeter=0;" parent="Qp8LGx2am25BI7LuQ1px-1" source="DMQ4lBBP8DXpzSE-sa22-19" target="DMQ4lBBP8DXpzSE-sa22-19" edge="1">
          <mxGeometry width="50" height="50" relative="1" as="geometry">
            <mxPoint x="-850" y="-840" as="sourcePoint" />
            <mxPoint x="-323.87" y="-840.09" as="targetPoint" />
          </mxGeometry>
        </mxCell>
        <mxCell id="G7j2qKSmUK93hmbApJu_-2" value="&lt;span style=&quot;background-color: rgb(255 , 255 , 255)&quot;&gt;发售方案、询价报告、基金合同等&lt;/span&gt;&lt;span style=&quot;background-color: rgb(255 , 255 , 255)&quot;&gt;(REST/FTP)&lt;/span&gt;" style="text;html=1;resizable=0;autosize=1;align=center;verticalAlign=middle;points=[];fillColor=none;strokeColor=none;rounded=0;shadow=0;glass=0;sketch=0;fontSize=22;" parent="Qp8LGx2am25BI7LuQ1px-1" vertex="1">
          <mxGeometry x="-1015" y="-870" width="470" height="30" as="geometry" />
        </mxCell>
        <mxCell id="G7j2qKSmUK93hmbApJu_-3" value="" style="fillColor=#CC4125;strokeColor=#660000" parent="Qp8LGx2am25BI7LuQ1px-1" vertex="1">
          <mxGeometry x="-860" y="-460" width="10" height="25" as="geometry" />
        </mxCell>
        <mxCell id="G7j2qKSmUK93hmbApJu_-6" value="" style="endArrow=classic;html=1;fontSize=22;entryX=0;entryY=0;entryDx=0;entryDy=0;" parent="Qp8LGx2am25BI7LuQ1px-1" target="G7j2qKSmUK93hmbApJu_-3" edge="1">
          <mxGeometry width="50" height="50" relative="1" as="geometry">
            <mxPoint x="-1098" y="-460" as="sourcePoint" />
            <mxPoint x="-865" y="-471" as="targetPoint" />
          </mxGeometry>
        </mxCell>
        <mxCell id="G7j2qKSmUK93hmbApJu_-8" value="" style="endArrow=classic;html=1;fontSize=22;entryX=0;entryY=0;entryDx=0;entryDy=0;" parent="Qp8LGx2am25BI7LuQ1px-1" edge="1">
          <mxGeometry width="50" height="50" relative="1" as="geometry">
            <mxPoint x="-1519.1" y="-500" as="sourcePoint" />
            <mxPoint x="-1405" y="-499.55000000000007" as="targetPoint" />
          </mxGeometry>
        </mxCell>
        <mxCell id="G7j2qKSmUK93hmbApJu_-13" value="" style="endArrow=classic;html=1;fontSize=22;entryX=0;entryY=0;entryDx=0;entryDy=0;" parent="Qp8LGx2am25BI7LuQ1px-1" edge="1">
          <mxGeometry width="50" height="50" relative="1" as="geometry">
            <mxPoint x="-1520" y="-400" as="sourcePoint" />
            <mxPoint x="-1405.9" y="-399.55000000000007" as="targetPoint" />
          </mxGeometry>
        </mxCell>
        <mxCell id="G7j2qKSmUK93hmbApJu_-14" value="&lt;b style=&quot;font-size: 14px&quot;&gt;X-1日10:00到11:00&lt;/b&gt;" style="edgeLabel;html=1;align=center;verticalAlign=middle;resizable=0;points=[];" parent="G7j2qKSmUK93hmbApJu_-13" vertex="1" connectable="0">
          <mxGeometry x="-0.6021" y="-2" relative="1" as="geometry">
            <mxPoint x="12.509999999999998" y="-2.0899999999999963" as="offset" />
          </mxGeometry>
        </mxCell>
        <mxCell id="G7j2qKSmUK93hmbApJu_-15" value="" style="endArrow=classic;html=1;fontSize=22;entryX=0;entryY=0;entryDx=0;entryDy=0;exitX=1.034;exitY=0.136;exitDx=0;exitDy=0;exitPerimeter=0;" parent="Qp8LGx2am25BI7LuQ1px-1" edge="1">
          <mxGeometry width="50" height="50" relative="1" as="geometry">
            <mxPoint x="-1389.8300000000002" y="-400" as="sourcePoint" />
            <mxPoint x="-1110.17" y="-399.96000000000004" as="targetPoint" />
          </mxGeometry>
        </mxCell>
        <mxCell id="G7j2qKSmUK93hmbApJu_-17" value="" style="endArrow=classic;html=1;fontSize=22;entryX=0;entryY=0;entryDx=0;entryDy=0;exitX=0.99;exitY=0.15;exitDx=0;exitDy=0;exitPerimeter=0;" parent="Qp8LGx2am25BI7LuQ1px-1" edge="1">
          <mxGeometry width="50" height="50" relative="1" as="geometry">
            <mxPoint x="-1100" y="-390" as="sourcePoint" />
            <mxPoint x="-859.9" y="-389.96000000000004" as="targetPoint" />
          </mxGeometry>
        </mxCell>
        <mxCell id="G7j2qKSmUK93hmbApJu_-18" value="" style="endArrow=classic;html=1;fontSize=22;entryX=0;entryY=0;entryDx=0;entryDy=0;exitX=1.034;exitY=0.136;exitDx=0;exitDy=0;exitPerimeter=0;" parent="Qp8LGx2am25BI7LuQ1px-1" edge="1">
          <mxGeometry width="50" height="50" relative="1" as="geometry">
            <mxPoint x="-1400" y="-210.84" as="sourcePoint" />
            <mxPoint x="-1120.34" y="-210.80000000000004" as="targetPoint" />
          </mxGeometry>
        </mxCell>
        <mxCell id="G7j2qKSmUK93hmbApJu_-19" value="&lt;font style=&quot;font-size: 18px&quot;&gt;提交询价申请（网下投资者）&lt;/font&gt;" style="edgeLabel;html=1;align=center;verticalAlign=middle;resizable=0;points=[];fontSize=22;" parent="G7j2qKSmUK93hmbApJu_-18" vertex="1" connectable="0">
          <mxGeometry x="-0.1371" relative="1" as="geometry">
            <mxPoint x="29.17" y="-20.019999999999996" as="offset" />
          </mxGeometry>
        </mxCell>
        <mxCell id="G7j2qKSmUK93hmbApJu_-20" value="" style="endArrow=classic;html=1;fontSize=22;exitX=0.99;exitY=0.15;exitDx=0;exitDy=0;exitPerimeter=0;" parent="Qp8LGx2am25BI7LuQ1px-1" edge="1">
          <mxGeometry width="50" height="50" relative="1" as="geometry">
            <mxPoint x="-1097.5" y="-185" as="sourcePoint" />
            <mxPoint x="-862.5" y="-185" as="targetPoint" />
            <Array as="points" />
          </mxGeometry>
        </mxCell>
        <mxCell id="G7j2qKSmUK93hmbApJu_-21" value="&lt;font style=&quot;font-size: 14px&quot;&gt;&lt;b&gt;X日&lt;/b&gt;&lt;/font&gt;" style="edgeLabel;html=1;align=center;verticalAlign=middle;resizable=0;points=[];" parent="Qp8LGx2am25BI7LuQ1px-1" vertex="1" connectable="0">
          <mxGeometry x="-1525.0043898374106" y="-210.00185369589417" as="geometry">
            <mxPoint x="20" y="-10" as="offset" />
          </mxGeometry>
        </mxCell>
        <mxCell id="G7j2qKSmUK93hmbApJu_-29" value="" style="endArrow=classic;html=1;fontSize=22;entryX=0;entryY=0;entryDx=0;entryDy=0;exitX=1.034;exitY=0.136;exitDx=0;exitDy=0;exitPerimeter=0;" parent="Qp8LGx2am25BI7LuQ1px-1" edge="1">
          <mxGeometry width="50" height="50" relative="1" as="geometry">
            <mxPoint x="-1394.83" y="110" as="sourcePoint" />
            <mxPoint x="-1115.1699999999998" y="110.03999999999996" as="targetPoint" />
          </mxGeometry>
        </mxCell>
        <mxCell id="UzzSqA8eezPBpphtxFd--11" value="&lt;font style=&quot;font-size: 18px&quot;&gt;发起认购（基金发行人）&lt;/font&gt;" style="edgeLabel;html=1;align=center;verticalAlign=middle;resizable=0;points=[];" parent="G7j2qKSmUK93hmbApJu_-29" vertex="1" connectable="0">
          <mxGeometry x="0.0816" y="-1" relative="1" as="geometry">
            <mxPoint x="-6.930000000000007" y="-21.02" as="offset" />
          </mxGeometry>
        </mxCell>
        <mxCell id="G7j2qKSmUK93hmbApJu_-33" value="&lt;font color=&quot;#ff0080&quot;&gt;(REST/GRPC)&lt;/font&gt;" style="edgeLabel;html=1;align=center;verticalAlign=middle;resizable=0;points=[];fontSize=22;" parent="Qp8LGx2am25BI7LuQ1px-1" vertex="1" connectable="0">
          <mxGeometry x="-1250.000001237698" y="-520.0026932705769" as="geometry">
            <mxPoint x="-5" y="-5" as="offset" />
          </mxGeometry>
        </mxCell>
        <mxCell id="G7j2qKSmUK93hmbApJu_-38" value="&lt;font style=&quot;font-size: 14px&quot;&gt;&lt;b&gt;X-1日10:00前&lt;/b&gt;&lt;/font&gt;" style="edgeLabel;html=1;align=center;verticalAlign=middle;resizable=0;points=[];" parent="Qp8LGx2am25BI7LuQ1px-1" vertex="1" connectable="0">
          <mxGeometry x="-1495.0043898374106" y="-505.00185369589417" as="geometry">
            <mxPoint x="14" y="3" as="offset" />
          </mxGeometry>
        </mxCell>
        <mxCell id="G7j2qKSmUK93hmbApJu_-39" value="" style="fillColor=#CC4125;strokeColor=#660000" parent="Qp8LGx2am25BI7LuQ1px-1" vertex="1">
          <mxGeometry x="-315" y="120" width="10" height="40" as="geometry" />
        </mxCell>
        <mxCell id="G7j2qKSmUK93hmbApJu_-40" value="" style="endArrow=none;dashed=1;html=1;fontSize=22;" parent="Qp8LGx2am25BI7LuQ1px-1" target="G7j2qKSmUK93hmbApJu_-39" edge="1">
          <mxGeometry width="50" height="50" relative="1" as="geometry">
            <mxPoint x="-310" y="280" as="sourcePoint" />
            <mxPoint x="-319.9253731343283" y="-445" as="targetPoint" />
          </mxGeometry>
        </mxCell>
        <mxCell id="G7j2qKSmUK93hmbApJu_-46" value="" style="endArrow=classic;html=1;fontSize=22;entryX=0;entryY=0;entryDx=0;entryDy=0;exitX=0.99;exitY=0.15;exitDx=0;exitDy=0;exitPerimeter=0;" parent="Qp8LGx2am25BI7LuQ1px-1" edge="1">
          <mxGeometry width="50" height="50" relative="1" as="geometry">
            <mxPoint x="-1100" y="119.5" as="sourcePoint" />
            <mxPoint x="-859.9000000000001" y="119.53999999999996" as="targetPoint" />
          </mxGeometry>
        </mxCell>
        <mxCell id="G7j2qKSmUK93hmbApJu_-47" value="" style="endArrow=classic;html=1;fontSize=22;entryX=0;entryY=0;entryDx=0;entryDy=0;" parent="Qp8LGx2am25BI7LuQ1px-1" edge="1">
          <mxGeometry width="50" height="50" relative="1" as="geometry">
            <mxPoint x="-1520" y="110" as="sourcePoint" />
            <mxPoint x="-1410.9" y="110.44999999999982" as="targetPoint" />
          </mxGeometry>
        </mxCell>
        <mxCell id="G7j2qKSmUK93hmbApJu_-48" value="&lt;font style=&quot;font-size: 14px&quot;&gt;&lt;b&gt;L日至M日&lt;/b&gt;&lt;/font&gt;" style="edgeLabel;html=1;align=center;verticalAlign=middle;resizable=0;points=[];" parent="Qp8LGx2am25BI7LuQ1px-1" vertex="1" connectable="0">
          <mxGeometry x="-1484.9977279293046" y="120.00066517781397" as="geometry">
            <mxPoint x="-2" y="-14" as="offset" />
          </mxGeometry>
        </mxCell>
        <mxCell id="G7j2qKSmUK93hmbApJu_-49" value="" style="endArrow=classic;html=1;fontSize=22;entryX=0;entryY=0;entryDx=0;entryDy=0;" parent="Qp8LGx2am25BI7LuQ1px-1" edge="1">
          <mxGeometry width="50" height="50" relative="1" as="geometry">
            <mxPoint x="-1514.1" y="245" as="sourcePoint" />
            <mxPoint x="-1405" y="245.44999999999982" as="targetPoint" />
          </mxGeometry>
        </mxCell>
        <mxCell id="G7j2qKSmUK93hmbApJu_-57" value="&lt;font color=&quot;#ff0080&quot;&gt;(GRPC)&lt;/font&gt;" style="edgeLabel;html=1;align=center;verticalAlign=middle;resizable=0;points=[];fontSize=22;" parent="Qp8LGx2am25BI7LuQ1px-1" vertex="1" connectable="0">
          <mxGeometry x="-980.0000012376979" y="-520.0026932705769" as="geometry">
            <mxPoint x="-5" y="-5" as="offset" />
          </mxGeometry>
        </mxCell>
        <mxCell id="G7j2qKSmUK93hmbApJu_-58" value="&lt;font color=&quot;#ff0080&quot;&gt;(FTP)&lt;/font&gt;" style="edgeLabel;html=1;align=center;verticalAlign=middle;resizable=0;points=[];fontSize=22;" parent="Qp8LGx2am25BI7LuQ1px-1" vertex="1" connectable="0">
          <mxGeometry x="-570.0000012376979" y="-520.0026932705769" as="geometry">
            <mxPoint x="-12" y="-5" as="offset" />
          </mxGeometry>
        </mxCell>
        <mxCell id="G7j2qKSmUK93hmbApJu_-63" value="" style="endArrow=classic;html=1;fontSize=22;exitX=0.99;exitY=0.15;exitDx=0;exitDy=0;exitPerimeter=0;" parent="Qp8LGx2am25BI7LuQ1px-1" edge="1">
          <mxGeometry width="50" height="50" relative="1" as="geometry">
            <mxPoint x="-840" y="-159.99999999999977" as="sourcePoint" />
            <mxPoint x="-320" y="-160" as="targetPoint" />
          </mxGeometry>
        </mxCell>
        <mxCell id="UzzSqA8eezPBpphtxFd--8" value="&lt;font style=&quot;font-size: 18px&quot;&gt;保存询价报价明细；初步询价结果&lt;/font&gt;" style="edgeLabel;html=1;align=center;verticalAlign=middle;resizable=0;points=[];" parent="G7j2qKSmUK93hmbApJu_-63" vertex="1" connectable="0">
          <mxGeometry x="0.1723" relative="1" as="geometry">
            <mxPoint x="-24.71" y="-15" as="offset" />
          </mxGeometry>
        </mxCell>
        <mxCell id="G7j2qKSmUK93hmbApJu_-64" value="" style="fillColor=#CC4125;strokeColor=#660000" parent="Qp8LGx2am25BI7LuQ1px-1" vertex="1">
          <mxGeometry x="-315" y="-160" width="10" height="40" as="geometry" />
        </mxCell>
        <mxCell id="G7j2qKSmUK93hmbApJu_-65" value="" style="endArrow=none;dashed=1;html=1;fontSize=22;" parent="Qp8LGx2am25BI7LuQ1px-1" source="gisPpIyH0exq2wIck2Z8-18" target="G7j2qKSmUK93hmbApJu_-64" edge="1">
          <mxGeometry width="50" height="50" relative="1" as="geometry">
            <mxPoint x="-314.99447208402444" y="-110" as="sourcePoint" />
            <mxPoint x="-314.9253731343283" y="-610" as="targetPoint" />
          </mxGeometry>
        </mxCell>
        <mxCell id="G7j2qKSmUK93hmbApJu_-67" value="" style="endArrow=classic;html=1;fontSize=22;entryX=0;entryY=0;entryDx=0;entryDy=0;" parent="Qp8LGx2am25BI7LuQ1px-1" edge="1">
          <mxGeometry width="50" height="50" relative="1" as="geometry">
            <mxPoint x="-1520" y="-20" as="sourcePoint" />
            <mxPoint x="-1410.45" y="-19.550000000000182" as="targetPoint" />
          </mxGeometry>
        </mxCell>
        <mxCell id="G7j2qKSmUK93hmbApJu_-68" value="&lt;font style=&quot;font-size: 14px&quot;&gt;&lt;b&gt;L-2日&lt;br&gt;&lt;/b&gt;&lt;/font&gt;" style="edgeLabel;html=1;align=center;verticalAlign=middle;resizable=0;points=[];" parent="Qp8LGx2am25BI7LuQ1px-1" vertex="1" connectable="0">
          <mxGeometry x="-1435.0043898374106" y="-70.00185369589417" as="geometry">
            <mxPoint x="-72" y="47" as="offset" />
          </mxGeometry>
        </mxCell>
        <mxCell id="UzzSqA8eezPBpphtxFd--2" value="" style="fillColor=#CC4125;strokeColor=#660000" parent="Qp8LGx2am25BI7LuQ1px-1" vertex="1">
          <mxGeometry x="-1405" y="-520" width="10" height="740" as="geometry" />
        </mxCell>
        <mxCell id="UzzSqA8eezPBpphtxFd--3" value="" style="endArrow=none;dashed=1;html=1;fontSize=22;entryX=0.5;entryY=1;entryDx=0;entryDy=0;" parent="Qp8LGx2am25BI7LuQ1px-1" target="UzzSqA8eezPBpphtxFd--2" edge="1">
          <mxGeometry width="50" height="50" relative="1" as="geometry">
            <mxPoint x="-1400" y="280" as="sourcePoint" />
            <mxPoint x="-1400.37" y="370.0049999999999" as="targetPoint" />
          </mxGeometry>
        </mxCell>
        <mxCell id="UzzSqA8eezPBpphtxFd--4" value="" style="endArrow=classic;html=1;fontSize=22;" parent="Qp8LGx2am25BI7LuQ1px-1" edge="1">
          <mxGeometry width="50" height="50" relative="1" as="geometry">
            <mxPoint x="-845" y="130" as="sourcePoint" />
            <mxPoint x="-324.5" y="130" as="targetPoint" />
          </mxGeometry>
        </mxCell>
        <mxCell id="UzzSqA8eezPBpphtxFd--6" value="&lt;font style=&quot;font-size: 18px&quot;&gt;每日认购数据&lt;/font&gt;" style="edgeLabel;html=1;align=center;verticalAlign=middle;resizable=0;points=[];" parent="UzzSqA8eezPBpphtxFd--4" vertex="1" connectable="0">
          <mxGeometry x="0.088" y="2" relative="1" as="geometry">
            <mxPoint x="-3.5299999999999976" y="-13" as="offset" />
          </mxGeometry>
        </mxCell>
        <mxCell id="UzzSqA8eezPBpphtxFd--13" value="&lt;font style=&quot;font-size: 14px&quot;&gt;&lt;b&gt;M+1日&lt;/b&gt;&lt;/font&gt;" style="edgeLabel;html=1;align=center;verticalAlign=middle;resizable=0;points=[];" parent="Qp8LGx2am25BI7LuQ1px-1" vertex="1" connectable="0">
          <mxGeometry x="-1495.0077279293046" y="240.00066517781397" as="geometry">
            <mxPoint x="-4" y="6" as="offset" />
          </mxGeometry>
        </mxCell>
        <mxCell id="UzzSqA8eezPBpphtxFd--20" value="" style="endArrow=none;dashed=1;html=1;fontSize=22;entryX=1;entryY=1;entryDx=0;entryDy=0;" parent="Qp8LGx2am25BI7LuQ1px-1" source="UzzSqA8eezPBpphtxFd--0" edge="1">
          <mxGeometry width="50" height="50" relative="1" as="geometry">
            <mxPoint x="-1396.5102952869247" y="-490" as="sourcePoint" />
            <mxPoint x="-1400" y="-790" as="targetPoint" />
          </mxGeometry>
        </mxCell>
        <mxCell id="UzzSqA8eezPBpphtxFd--22" value="" style="fillColor=#CC4125;strokeColor=#660000" parent="Qp8LGx2am25BI7LuQ1px-1" vertex="1">
          <mxGeometry x="-1405" y="-945" width="10" height="155" as="geometry" />
        </mxCell>
        <mxCell id="UzzSqA8eezPBpphtxFd--23" value="" style="endArrow=none;dashed=1;html=1;fontSize=22;entryX=0.413;entryY=1.009;entryDx=0;entryDy=0;entryPerimeter=0;" parent="Qp8LGx2am25BI7LuQ1px-1" target="UzzSqA8eezPBpphtxFd--22" edge="1">
          <mxGeometry width="50" height="50" relative="1" as="geometry">
            <mxPoint x="-1400" y="-784.77783203125" as="sourcePoint" />
            <mxPoint x="-1399.79" y="-989.46" as="targetPoint" />
          </mxGeometry>
        </mxCell>
        <mxCell id="UzzSqA8eezPBpphtxFd--0" value="" style="fillColor=#CC4125;strokeColor=#660000" parent="Qp8LGx2am25BI7LuQ1px-1" vertex="1">
          <mxGeometry x="-1405" y="-680" width="10" height="115" as="geometry" />
        </mxCell>
        <mxCell id="UzzSqA8eezPBpphtxFd--24" value="" style="endArrow=none;dashed=1;html=1;fontSize=22;entryX=0.5;entryY=1;entryDx=0;entryDy=0;exitX=0.5;exitY=0;exitDx=0;exitDy=0;" parent="Qp8LGx2am25BI7LuQ1px-1" source="UzzSqA8eezPBpphtxFd--2" target="UzzSqA8eezPBpphtxFd--0" edge="1">
          <mxGeometry width="50" height="50" relative="1" as="geometry">
            <mxPoint x="-1397.1698113207547" y="-490" as="sourcePoint" />
            <mxPoint x="-1400" y="-790" as="targetPoint" />
          </mxGeometry>
        </mxCell>
        <mxCell id="UzzSqA8eezPBpphtxFd--27" value="" style="endArrow=classic;html=1;entryX=1;entryY=0;entryDx=0;entryDy=0;exitX=0;exitY=1;exitDx=0;exitDy=0;" parent="Qp8LGx2am25BI7LuQ1px-1" source="m6hWaUQ9fFUowQkMyECI-70" target="G7j2qKSmUK93hmbApJu_-0" edge="1">
          <mxGeometry width="50" height="50" relative="1" as="geometry">
            <mxPoint x="195" y="-825" as="sourcePoint" />
            <mxPoint x="-135" y="-850" as="targetPoint" />
          </mxGeometry>
        </mxCell>
        <mxCell id="UzzSqA8eezPBpphtxFd--29" value="&lt;span style=&quot;background-color: rgb(255 , 255 , 255)&quot;&gt;处理结果&lt;/span&gt;" style="text;html=1;resizable=0;autosize=1;align=center;verticalAlign=middle;points=[];fillColor=none;strokeColor=none;rounded=0;shadow=0;glass=0;sketch=0;fontSize=22;" parent="Qp8LGx2am25BI7LuQ1px-1" vertex="1">
          <mxGeometry x="-110" y="-822" width="100" height="35" as="geometry" />
        </mxCell>
        <mxCell id="UzzSqA8eezPBpphtxFd--31" value="" style="edgeStyle=none;verticalLabelPosition=top;verticalAlign=bottom;endArrow=none;startArrow=classic;dashed=1;exitX=1.011;exitY=0.866;exitDx=0;exitDy=0;exitPerimeter=0;entryX=0;entryY=1;entryDx=0;entryDy=0;" parent="Qp8LGx2am25BI7LuQ1px-1" source="UzzSqA8eezPBpphtxFd--0" target="m6hWaUQ9fFUowQkMyECI-84" edge="1">
          <mxGeometry x="-1120.97" y="-681.0911265432098" width="100" height="100" as="geometry">
            <mxPoint x="-1386.53" y="-580" as="sourcePoint" />
            <mxPoint x="-1113.47" y="-578" as="targetPoint" />
            <Array as="points" />
          </mxGeometry>
        </mxCell>
        <mxCell id="UzzSqA8eezPBpphtxFd--39" value="" style="edgeStyle=none;verticalLabelPosition=top;verticalAlign=bottom;endArrow=none;startArrow=classic;dashed=1;exitX=1.011;exitY=0.866;exitDx=0;exitDy=0;exitPerimeter=0;" parent="Qp8LGx2am25BI7LuQ1px-1" edge="1">
          <mxGeometry x="-826.0799999999999" y="-545.6811265432099" width="100" height="100" as="geometry">
            <mxPoint x="-1099.9999999999998" y="-445.0000000000001" as="sourcePoint" />
            <mxPoint x="-862" y="-445" as="targetPoint" />
            <Array as="points" />
          </mxGeometry>
        </mxCell>
        <mxCell id="UzzSqA8eezPBpphtxFd--41" value="" style="edgeStyle=none;verticalLabelPosition=top;verticalAlign=bottom;endArrow=none;startArrow=classic;dashed=1;" parent="Qp8LGx2am25BI7LuQ1px-1" edge="1">
          <mxGeometry x="-1121.08" y="-555.6811265432099" width="100" height="100" as="geometry">
            <mxPoint x="-1395" y="-435" as="sourcePoint" />
            <mxPoint x="-1112" y="-435" as="targetPoint" />
            <Array as="points">
              <mxPoint x="-1245" y="-435" />
            </Array>
          </mxGeometry>
        </mxCell>
        <mxCell id="UzzSqA8eezPBpphtxFd--43" value="" style="endArrow=classic;html=1;fontSize=22;entryX=0;entryY=0;entryDx=0;entryDy=0;exitX=1.034;exitY=0.136;exitDx=0;exitDy=0;exitPerimeter=0;" parent="Qp8LGx2am25BI7LuQ1px-1" edge="1">
          <mxGeometry width="50" height="50" relative="1" as="geometry">
            <mxPoint x="-1395" y="-480" as="sourcePoint" />
            <mxPoint x="-1110" y="-479.99999999999864" as="targetPoint" />
          </mxGeometry>
        </mxCell>
        <mxCell id="UzzSqA8eezPBpphtxFd--46" value="&lt;font style=&quot;font-size: 18px&quot;&gt;询价参数录入(基金发行人)&lt;/font&gt;" style="edgeLabel;html=1;align=center;verticalAlign=middle;resizable=0;points=[];fontSize=22;" parent="Qp8LGx2am25BI7LuQ1px-1" vertex="1" connectable="0">
          <mxGeometry x="-1255.003530651268" y="-495.00266802984333" as="geometry" />
        </mxCell>
        <mxCell id="UzzSqA8eezPBpphtxFd--47" value="&lt;span style=&quot;font-family: &amp;#34;helvetica&amp;#34; ; font-size: 18px ; background-color: rgb(255 , 255 , 255)&quot;&gt;审核询价参数(业务人员)&lt;/span&gt;" style="text;html=1;align=center;verticalAlign=middle;resizable=0;points=[];autosize=1;fontSize=12;fontFamily=Verdana;" parent="Qp8LGx2am25BI7LuQ1px-1" vertex="1">
          <mxGeometry x="-1365" y="-430" width="205" height="25" as="geometry" />
        </mxCell>
        <mxCell id="UzzSqA8eezPBpphtxFd--48" value="" style="fillColor=#CC4125;strokeColor=#660000" parent="Qp8LGx2am25BI7LuQ1px-1" vertex="1">
          <mxGeometry x="-860" y="-395" width="10" height="25" as="geometry" />
        </mxCell>
        <mxCell id="UzzSqA8eezPBpphtxFd--49" value="" style="endArrow=none;dashed=1;html=1;fontSize=22;" parent="Qp8LGx2am25BI7LuQ1px-1" source="gisPpIyH0exq2wIck2Z8-7" target="UzzSqA8eezPBpphtxFd--48" edge="1">
          <mxGeometry width="50" height="50" relative="1" as="geometry">
            <mxPoint x="-850" y="240" as="sourcePoint" />
            <mxPoint x="-855" y="-750" as="targetPoint" />
            <Array as="points" />
          </mxGeometry>
        </mxCell>
        <mxCell id="UzzSqA8eezPBpphtxFd--50" value="" style="edgeStyle=none;verticalLabelPosition=top;verticalAlign=bottom;endArrow=none;startArrow=classic;dashed=1;exitX=1.011;exitY=0.866;exitDx=0;exitDy=0;exitPerimeter=0;" parent="Qp8LGx2am25BI7LuQ1px-1" edge="1">
          <mxGeometry x="-826.0799999999999" y="-480.68112654320987" width="100" height="100" as="geometry">
            <mxPoint x="-1099.9999999999998" y="-380" as="sourcePoint" />
            <mxPoint x="-862" y="-380" as="targetPoint" />
            <Array as="points" />
          </mxGeometry>
        </mxCell>
        <mxCell id="UzzSqA8eezPBpphtxFd--51" value="" style="edgeStyle=none;verticalLabelPosition=top;verticalAlign=bottom;endArrow=none;startArrow=classic;dashed=1;" parent="Qp8LGx2am25BI7LuQ1px-1" edge="1">
          <mxGeometry x="-1116.08" y="-491.68112654320987" width="100" height="100" as="geometry">
            <mxPoint x="-1390" y="-371" as="sourcePoint" />
            <mxPoint x="-1110" y="-371" as="targetPoint" />
            <Array as="points">
              <mxPoint x="-1240" y="-371" />
            </Array>
          </mxGeometry>
        </mxCell>
        <mxCell id="UzzSqA8eezPBpphtxFd--52" value="" style="fillColor=#CC4125;strokeColor=#660000" parent="Qp8LGx2am25BI7LuQ1px-1" vertex="1">
          <mxGeometry x="-860" y="-205" width="10" height="105" as="geometry" />
        </mxCell>
        <mxCell id="UzzSqA8eezPBpphtxFd--53" value="" style="endArrow=none;dashed=1;html=1;fontSize=22;entryX=0.5;entryY=1;entryDx=0;entryDy=0;exitX=0.5;exitY=0;exitDx=0;exitDy=0;" parent="Qp8LGx2am25BI7LuQ1px-1" source="gisPpIyH0exq2wIck2Z8-15" target="UzzSqA8eezPBpphtxFd--52" edge="1">
          <mxGeometry width="50" height="50" relative="1" as="geometry">
            <mxPoint x="-855" y="545" as="sourcePoint" />
            <mxPoint x="-860" y="65" as="targetPoint" />
            <Array as="points" />
          </mxGeometry>
        </mxCell>
        <mxCell id="UzzSqA8eezPBpphtxFd--66" value="" style="endArrow=none;dashed=1;html=1;fontSize=22;entryX=0.5;entryY=1;entryDx=0;entryDy=0;" parent="Qp8LGx2am25BI7LuQ1px-1" target="UzzSqA8eezPBpphtxFd--89" edge="1">
          <mxGeometry width="50" height="50" relative="1" as="geometry">
            <mxPoint x="-855" y="280" as="sourcePoint" />
            <mxPoint x="-855" y="235" as="targetPoint" />
            <Array as="points" />
          </mxGeometry>
        </mxCell>
        <mxCell id="UzzSqA8eezPBpphtxFd--68" value="" style="edgeStyle=none;verticalLabelPosition=top;verticalAlign=bottom;endArrow=none;startArrow=classic;dashed=1;exitX=1.011;exitY=0.866;exitDx=0;exitDy=0;exitPerimeter=0;" parent="Qp8LGx2am25BI7LuQ1px-1" edge="1">
          <mxGeometry x="-571.0799999999999" y="-225.68112654320987" width="100" height="100" as="geometry">
            <mxPoint x="-844.9999999999998" y="-125" as="sourcePoint" />
            <mxPoint x="-320" y="-125" as="targetPoint" />
            <Array as="points" />
          </mxGeometry>
        </mxCell>
        <mxCell id="UzzSqA8eezPBpphtxFd--69" value="" style="edgeStyle=none;verticalLabelPosition=top;verticalAlign=bottom;endArrow=none;startArrow=classic;dashed=1;exitX=1.011;exitY=0.866;exitDx=0;exitDy=0;exitPerimeter=0;" parent="Qp8LGx2am25BI7LuQ1px-1" edge="1">
          <mxGeometry x="-576.0799999999999" y="-60.68112654320987" width="100" height="100" as="geometry">
            <mxPoint x="-849.9999999999998" y="40" as="sourcePoint" />
            <mxPoint x="-325" y="40" as="targetPoint" />
            <Array as="points" />
          </mxGeometry>
        </mxCell>
        <mxCell id="UzzSqA8eezPBpphtxFd--70" value="" style="edgeStyle=none;verticalLabelPosition=top;verticalAlign=bottom;endArrow=none;startArrow=classic;dashed=1;exitX=1.011;exitY=0.866;exitDx=0;exitDy=0;exitPerimeter=0;" parent="Qp8LGx2am25BI7LuQ1px-1" edge="1">
          <mxGeometry x="-571.0799999999999" y="49.31887345679013" width="100" height="100" as="geometry">
            <mxPoint x="-844.9999999999998" y="150" as="sourcePoint" />
            <mxPoint x="-320" y="150" as="targetPoint" />
            <Array as="points" />
          </mxGeometry>
        </mxCell>
        <mxCell id="UzzSqA8eezPBpphtxFd--82" value="" style="endArrow=classic;html=1;fontSize=22;entryX=0;entryY=0;entryDx=0;entryDy=0;" parent="Qp8LGx2am25BI7LuQ1px-1" edge="1">
          <mxGeometry width="50" height="50" relative="1" as="geometry">
            <mxPoint x="-845" y="25" as="sourcePoint" />
            <mxPoint x="-320" y="25" as="targetPoint" />
            <Array as="points">
              <mxPoint x="-665" y="25" />
            </Array>
          </mxGeometry>
        </mxCell>
        <mxCell id="UzzSqA8eezPBpphtxFd--84" value="&lt;span style=&quot;font-size: 18px&quot;&gt;导出认购结果并发送中登进行初始份额登记（基金发行人）&lt;/span&gt;" style="text;html=1;align=center;verticalAlign=middle;resizable=0;points=[];autosize=1;fontSize=12;fontFamily=Verdana;" parent="Qp8LGx2am25BI7LuQ1px-1" vertex="1">
          <mxGeometry x="-835" width="480" height="25" as="geometry" />
        </mxCell>
        <mxCell id="UzzSqA8eezPBpphtxFd--86" value="" style="edgeStyle=none;verticalLabelPosition=top;verticalAlign=bottom;endArrow=none;startArrow=classic;dashed=1;exitX=0.938;exitY=0.606;exitDx=0;exitDy=0;exitPerimeter=0;entryX=-0.181;entryY=0.58;entryDx=0;entryDy=0;entryPerimeter=0;" parent="Qp8LGx2am25BI7LuQ1px-1" edge="1">
          <mxGeometry x="-1126.4" y="40.988873456790124" width="100" height="100" as="geometry">
            <mxPoint x="-1395.0000000000005" y="170.79000000000005" as="sourcePoint" />
            <mxPoint x="-1111.19" y="169.99999999999963" as="targetPoint" />
            <Array as="points" />
          </mxGeometry>
        </mxCell>
        <mxCell id="UzzSqA8eezPBpphtxFd--87" value="" style="edgeStyle=none;verticalLabelPosition=top;verticalAlign=bottom;endArrow=none;startArrow=classic;dashed=1;exitX=1.011;exitY=0.866;exitDx=0;exitDy=0;exitPerimeter=0;" parent="Qp8LGx2am25BI7LuQ1px-1" edge="1">
          <mxGeometry x="-823.5799999999999" y="-215.68112654320987" width="100" height="100" as="geometry">
            <mxPoint x="-1097.5" y="-115" as="sourcePoint" />
            <mxPoint x="-862.5" y="-115" as="targetPoint" />
            <Array as="points" />
          </mxGeometry>
        </mxCell>
        <mxCell id="UzzSqA8eezPBpphtxFd--89" value="" style="fillColor=#CC4125;strokeColor=#660000" parent="Qp8LGx2am25BI7LuQ1px-1" vertex="1">
          <mxGeometry x="-860" y="110" width="10" height="50" as="geometry" />
        </mxCell>
        <mxCell id="gisPpIyH0exq2wIck2Z8-0" value="&lt;font style=&quot;font-size: 18px&quot;&gt;审核认购参数（业务人员）&lt;/font&gt;" style="edgeLabel;html=1;align=center;verticalAlign=middle;resizable=0;points=[];" parent="Qp8LGx2am25BI7LuQ1px-1" vertex="1" connectable="0">
          <mxGeometry x="-1255.005438700856" y="-4.998292979644475" as="geometry" />
        </mxCell>
        <mxCell id="gisPpIyH0exq2wIck2Z8-1" value="&lt;font style=&quot;font-size: 18px&quot;&gt;提交认购申请（网下投资者）&lt;/font&gt;" style="edgeLabel;html=1;align=center;verticalAlign=middle;resizable=0;points=[];" parent="Qp8LGx2am25BI7LuQ1px-1" vertex="1" connectable="0">
          <mxGeometry x="-1245.9301445753872" y="20.00159764384466" as="geometry" />
        </mxCell>
        <mxCell id="gisPpIyH0exq2wIck2Z8-3" value="" style="endArrow=classic;html=1;fontSize=22;entryX=0;entryY=0;entryDx=0;entryDy=0;" parent="Qp8LGx2am25BI7LuQ1px-1" edge="1">
          <mxGeometry width="50" height="50" relative="1" as="geometry">
            <mxPoint x="-1520" y="-340" as="sourcePoint" />
            <mxPoint x="-1405.9" y="-339.5500000000002" as="targetPoint" />
          </mxGeometry>
        </mxCell>
        <mxCell id="gisPpIyH0exq2wIck2Z8-4" value="&lt;b style=&quot;font-size: 14px&quot;&gt;X-1日21:00前&lt;/b&gt;" style="edgeLabel;html=1;align=center;verticalAlign=middle;resizable=0;points=[];" parent="gisPpIyH0exq2wIck2Z8-3" vertex="1" connectable="0">
          <mxGeometry x="-0.6021" y="-2" relative="1" as="geometry">
            <mxPoint x="17.009999999999998" y="-2.0899999999999963" as="offset" />
          </mxGeometry>
        </mxCell>
        <mxCell id="gisPpIyH0exq2wIck2Z8-5" value="" style="endArrow=classic;html=1;fontSize=22;entryX=0;entryY=0;entryDx=0;entryDy=0;exitX=1.034;exitY=0.136;exitDx=0;exitDy=0;exitPerimeter=0;" parent="Qp8LGx2am25BI7LuQ1px-1" edge="1">
          <mxGeometry width="50" height="50" relative="1" as="geometry">
            <mxPoint x="-1389.83" y="-340" as="sourcePoint" />
            <mxPoint x="-1110.17" y="-339.96000000000004" as="targetPoint" />
          </mxGeometry>
        </mxCell>
        <mxCell id="gisPpIyH0exq2wIck2Z8-6" value="" style="endArrow=classic;html=1;fontSize=22;entryX=0;entryY=0;entryDx=0;entryDy=0;" parent="Qp8LGx2am25BI7LuQ1px-1" edge="1">
          <mxGeometry width="50" height="50" relative="1" as="geometry">
            <mxPoint x="-1098" y="-335" as="sourcePoint" />
            <mxPoint x="-860" y="-335" as="targetPoint" />
          </mxGeometry>
        </mxCell>
        <mxCell id="gisPpIyH0exq2wIck2Z8-7" value="" style="fillColor=#CC4125;strokeColor=#660000" parent="Qp8LGx2am25BI7LuQ1px-1" vertex="1">
          <mxGeometry x="-860" y="-340" width="10" height="25" as="geometry" />
        </mxCell>
        <mxCell id="gisPpIyH0exq2wIck2Z8-8" value="" style="endArrow=none;dashed=1;html=1;fontSize=22;" parent="Qp8LGx2am25BI7LuQ1px-1" source="UzzSqA8eezPBpphtxFd--52" target="gisPpIyH0exq2wIck2Z8-7" edge="1">
          <mxGeometry width="50" height="50" relative="1" as="geometry">
            <mxPoint x="-855" y="-190" as="sourcePoint" />
            <mxPoint x="-855" y="-370" as="targetPoint" />
            <Array as="points" />
          </mxGeometry>
        </mxCell>
        <mxCell id="gisPpIyH0exq2wIck2Z8-9" value="" style="edgeStyle=none;verticalLabelPosition=top;verticalAlign=bottom;endArrow=none;startArrow=classic;dashed=1;exitX=1.011;exitY=0.866;exitDx=0;exitDy=0;exitPerimeter=0;" parent="Qp8LGx2am25BI7LuQ1px-1" edge="1">
          <mxGeometry x="-826.0799999999999" y="-425.68112654320987" width="100" height="100" as="geometry">
            <mxPoint x="-1100" y="-325" as="sourcePoint" />
            <mxPoint x="-862" y="-325" as="targetPoint" />
            <Array as="points" />
          </mxGeometry>
        </mxCell>
        <mxCell id="gisPpIyH0exq2wIck2Z8-10" value="" style="edgeStyle=none;verticalLabelPosition=top;verticalAlign=bottom;endArrow=none;startArrow=classic;dashed=1;" parent="Qp8LGx2am25BI7LuQ1px-1" edge="1">
          <mxGeometry x="-1116.08" y="-440.68112654320987" width="100" height="100" as="geometry">
            <mxPoint x="-1390" y="-320" as="sourcePoint" />
            <mxPoint x="-1115" y="-320" as="targetPoint" />
            <Array as="points">
              <mxPoint x="-1240" y="-320" />
            </Array>
          </mxGeometry>
        </mxCell>
        <mxCell id="gisPpIyH0exq2wIck2Z8-11" value="&lt;span style=&quot;font-family: &amp;#34;helvetica&amp;#34; ; font-size: 18px ; background-color: rgb(255 , 255 , 255)&quot;&gt;剔除询价对象(基金发行人)&lt;/span&gt;" style="text;html=1;align=center;verticalAlign=middle;resizable=0;points=[];autosize=1;fontSize=12;fontFamily=Verdana;" parent="Qp8LGx2am25BI7LuQ1px-1" vertex="1">
          <mxGeometry x="-1367.51" y="-370" width="225" height="25" as="geometry" />
        </mxCell>
        <mxCell id="gisPpIyH0exq2wIck2Z8-15" value="" style="fillColor=#CC4125;strokeColor=#660000" parent="Qp8LGx2am25BI7LuQ1px-1" vertex="1">
          <mxGeometry x="-860" y="-5" width="10" height="60" as="geometry" />
        </mxCell>
        <mxCell id="gisPpIyH0exq2wIck2Z8-16" value="" style="endArrow=none;dashed=1;html=1;fontSize=22;entryX=0.5;entryY=1;entryDx=0;entryDy=0;exitX=0.5;exitY=0;exitDx=0;exitDy=0;" parent="Qp8LGx2am25BI7LuQ1px-1" source="UzzSqA8eezPBpphtxFd--89" target="gisPpIyH0exq2wIck2Z8-15" edge="1">
          <mxGeometry width="50" height="50" relative="1" as="geometry">
            <mxPoint x="-855" y="85.00000000000023" as="sourcePoint" />
            <mxPoint x="-855" y="-100" as="targetPoint" />
            <Array as="points" />
          </mxGeometry>
        </mxCell>
        <mxCell id="gisPpIyH0exq2wIck2Z8-17" value="" style="endArrow=classic;html=1;fontSize=22;entryX=0;entryY=0;entryDx=0;entryDy=0;" parent="Qp8LGx2am25BI7LuQ1px-1" edge="1">
          <mxGeometry width="50" height="50" relative="1" as="geometry">
            <mxPoint x="-1095" y="10" as="sourcePoint" />
            <mxPoint x="-864.9000000000001" y="10.039999999999907" as="targetPoint" />
          </mxGeometry>
        </mxCell>
        <mxCell id="gisPpIyH0exq2wIck2Z8-18" value="" style="fillColor=#CC4125;strokeColor=#660000" parent="Qp8LGx2am25BI7LuQ1px-1" vertex="1">
          <mxGeometry x="-315" y="10" width="10" height="40" as="geometry" />
        </mxCell>
        <mxCell id="gisPpIyH0exq2wIck2Z8-19" value="" style="endArrow=none;dashed=1;html=1;fontSize=22;" parent="Qp8LGx2am25BI7LuQ1px-1" source="G7j2qKSmUK93hmbApJu_-39" target="gisPpIyH0exq2wIck2Z8-18" edge="1">
          <mxGeometry width="50" height="50" relative="1" as="geometry">
            <mxPoint x="-314.61538461538476" y="100" as="sourcePoint" />
            <mxPoint x="-310.38461538461524" y="-120" as="targetPoint" />
          </mxGeometry>
        </mxCell>
        <mxCell id="gisPpIyH0exq2wIck2Z8-21" value="" style="edgeStyle=none;verticalLabelPosition=top;verticalAlign=bottom;endArrow=none;startArrow=classic;dashed=1;" parent="Qp8LGx2am25BI7LuQ1px-1" edge="1">
          <mxGeometry x="-831.0799999999999" y="-76.80112654320988" width="100" height="100" as="geometry">
            <mxPoint x="-1095" y="50" as="sourcePoint" />
            <mxPoint x="-865" y="50" as="targetPoint" />
            <Array as="points" />
          </mxGeometry>
        </mxCell>
        <mxCell id="gisPpIyH0exq2wIck2Z8-22" value="" style="edgeStyle=none;verticalLabelPosition=top;verticalAlign=bottom;endArrow=none;startArrow=classic;dashed=1;exitX=0.938;exitY=0.606;exitDx=0;exitDy=0;exitPerimeter=0;entryX=-0.181;entryY=0.58;entryDx=0;entryDy=0;entryPerimeter=0;" parent="Qp8LGx2am25BI7LuQ1px-1" edge="1">
          <mxGeometry x="-1125.21" y="-69.01112654320988" width="100" height="100" as="geometry">
            <mxPoint x="-1393.8100000000002" y="60.790000000000276" as="sourcePoint" />
            <mxPoint x="-1110" y="59.99999999999963" as="targetPoint" />
            <Array as="points" />
          </mxGeometry>
        </mxCell>
        <mxCell id="gisPpIyH0exq2wIck2Z8-23" value="" style="edgeStyle=none;verticalLabelPosition=top;verticalAlign=bottom;endArrow=none;startArrow=classic;dashed=1;exitX=0.964;exitY=0.558;exitDx=0;exitDy=0;exitPerimeter=0;" parent="Qp8LGx2am25BI7LuQ1px-1" edge="1">
          <mxGeometry x="-825.7199999999999" y="28.198873456790125" width="100" height="100" as="geometry">
            <mxPoint x="-1099.9999999999998" y="155.00000000000006" as="sourcePoint" />
            <mxPoint x="-860" y="155" as="targetPoint" />
            <Array as="points" />
          </mxGeometry>
        </mxCell>
        <mxCell id="gisPpIyH0exq2wIck2Z8-24" value="&lt;font style=&quot;font-size: 18px&quot;&gt;返回认购结果给基金发行人&lt;/font&gt;" style="edgeLabel;html=1;align=center;verticalAlign=middle;resizable=0;points=[];" parent="Qp8LGx2am25BI7LuQ1px-1" vertex="1" connectable="0">
          <mxGeometry x="-1245.9268112403483" y="150.0015738053744" as="geometry" />
        </mxCell>
        <mxCell id="gisPpIyH0exq2wIck2Z8-30" value="" style="fillColor=#CC4125;strokeColor=#660000" parent="Qp8LGx2am25BI7LuQ1px-1" vertex="1">
          <mxGeometry x="-1110" y="-490" width="10" height="185" as="geometry" />
        </mxCell>
        <mxCell id="gisPpIyH0exq2wIck2Z8-31" value="" style="endArrow=none;dashed=1;html=1;fontSize=22;" parent="Qp8LGx2am25BI7LuQ1px-1" source="gisPpIyH0exq2wIck2Z8-35" target="gisPpIyH0exq2wIck2Z8-30" edge="1">
          <mxGeometry width="50" height="50" relative="1" as="geometry">
            <mxPoint x="-1105.0096816049509" y="-260" as="sourcePoint" />
            <mxPoint x="-1105.0232558139533" y="-600" as="targetPoint" />
          </mxGeometry>
        </mxCell>
        <mxCell id="gisPpIyH0exq2wIck2Z8-36" value="" style="endArrow=none;dashed=1;html=1;fontSize=22;" parent="Qp8LGx2am25BI7LuQ1px-1" source="m6hWaUQ9fFUowQkMyECI-94" target="gisPpIyH0exq2wIck2Z8-35" edge="1">
          <mxGeometry width="50" height="50" relative="1" as="geometry">
            <mxPoint x="-1105" y="-50" as="sourcePoint" />
            <mxPoint x="-1105" y="-305" as="targetPoint" />
          </mxGeometry>
        </mxCell>
      </root>
    </mxGraphModel>
  </diagram>
</mxfile>
